<?xml version="1.0" encoding="UTF-8"?>
<svg width="12px" height="12px" viewBox="0 0 12 12" version="1.1" xmlns="http://www.w3.org/2000/svg" xmlns:xlink="http://www.w3.org/1999/xlink">
    <title>xicon-1</title>
    <g id="V1.1" stroke="none" stroke-width="1" fill="none" fill-rule="evenodd">
        <g id="icon-1" transform="translate(6.000000, 6.000000) scale(-1, 1) translate(-6.000000, -6.000000) ">
            <rect id="矩形" x="0" y="0" width="12" height="12"></rect>
            <path d="M1.15440436,3.15555539 C1.3370799,2.97086785 1.62031647,2.95067932 1.82497939,3.09476341 L1.89769498,3.15649478 L5.98846637,7.31382044 L10.103263,3.15552387 C10.2859539,2.97085184 10.5691921,2.95068737 10.7738431,3.09478884 L10.8465536,3.15652639 C11.0287588,3.34169057 11.0486539,3.62876347 10.9064773,3.83618517 L10.8455645,3.90988005 L6.35961708,8.44447613 C6.1769371,8.62913722 5.89371902,8.64931167 5.68906879,8.50523344 L5.61635764,8.44350522 L1.15347752,3.90890914 C0.948479421,3.70061684 0.948894383,3.36332888 1.15440436,3.15555539 Z" id="路径-2" fill="#7F7F7F" fill-rule="nonzero"></path>
        </g>
    </g>
</svg>