<?xml version="1.0" encoding="UTF-8"?>
<svg width="16px" height="16px" viewBox="0 0 16 16" version="1.1" xmlns="http://www.w3.org/2000/svg" xmlns:xlink="http://www.w3.org/1999/xlink">
    <title>树形图收起</title>
    <g id="V1.1" stroke="none" stroke-width="1" fill="none" fill-rule="evenodd">
        <g id="二级分类（展开有分割线）" transform="translate(-199.000000, -303.000000)">
            <g id="树形图收起" transform="translate(199.000000, 303.000000)">
                <rect id="白底" x="0" y="0" width="16" height="16"></rect>
                <path d="M14.1619998,12.3691719 C14.4244959,12.3691719 14.6372911,12.6689426 14.6372911,13.0387284 C14.6372911,13.3715357 14.464927,13.6476307 14.2390945,13.6995216 L14.1619998,13.708285 L1.80862463,13.708285 C1.5461285,13.708285 1.33333333,13.4085143 1.33333333,13.0387284 C1.33333333,12.7059212 1.50569741,12.4298262 1.73152991,12.3779353 L1.80862463,12.3691719 L14.1619998,12.3691719 Z M14.1619998,9.13390242 C14.4244959,9.13390242 14.6372911,9.4336731 14.6372911,9.80345898 C14.6372911,10.1362663 14.464927,10.4123613 14.2390945,10.4642522 L14.1619998,10.4730155 L6.24047818,10.4730155 C5.97798204,10.4730155 5.76518688,10.1732449 5.76518688,9.80345898 C5.76518688,9.47065169 5.93755096,9.19455671 6.16338346,9.14266578 L6.24047818,9.13390242 L14.1619998,9.13390242 Z M4.32534465,5.93933303 C4.59241811,5.93920113 4.80902962,6.15901536 4.80916001,6.43031079 L4.80916001,6.43031079 L4.80916001,9.46531867 C4.80916001,9.56380135 4.78005471,9.66001603 4.72556708,9.7414745 C4.57547152,9.96586602 4.27471523,10.0241754 4.05380852,9.87171212 L4.05380852,9.87171212 L1.85254676,8.35421405 C1.80200045,8.31935468 1.75841527,8.27508176 1.72409729,8.2237382 C1.57407896,7.99929434 1.63158715,7.69381321 1.85254676,7.54142824 L1.85254676,7.54142824 L4.05380111,6.02424972 C4.13390305,5.96896376 4.22850149,5.93938117 4.32534465,5.93933303 Z M14.1619998,5.79252014 C14.4244959,5.79252014 14.6372911,6.09229083 14.6372911,6.46207671 C14.6372911,6.794884 14.464927,7.07097898 14.2390945,7.1228699 L14.1619998,7.13163327 L6.24047818,7.13163327 C5.97798204,7.13163327 5.76518688,6.83186258 5.76518688,6.46207671 C5.76518688,6.12926942 5.93755096,5.85317443 6.16338346,5.80128351 L6.24047818,5.79252014 L14.1619998,5.79252014 Z M14.1913754,2.66666667 C14.4538715,2.66666667 14.6666667,2.96643735 14.6666667,3.33622323 C14.6666667,3.66903052 14.4943026,3.9451255 14.2684701,3.99701642 L14.1913754,4.00577979 L1.80862463,4.00577979 C1.5461285,4.00577979 1.33333333,3.70600911 1.33333333,3.33622323 C1.33333333,3.00341594 1.50569741,2.72732096 1.73152991,2.67543003 L1.80862463,2.66666667 L14.1913754,2.66666667 Z" id="收起" fill="#7F7F7F" fill-rule="nonzero"></path>
            </g>
        </g>
    </g>
</svg>