<?xml version="1.0" encoding="UTF-8"?>
<svg width="16px" height="16px" viewBox="0 0 16 16" version="1.1" xmlns="http://www.w3.org/2000/svg" xmlns:xlink="http://www.w3.org/1999/xlink">
    <title>xicon-2</title>
    <g id="V1.1" stroke="none" stroke-width="1" fill="none" fill-rule="evenodd">
        <g id="icon-2" transform="translate(8.000000, 8.000000) scale(-1, 1) rotate(-90.000000) translate(-8.000000, -8.000000) ">
            <rect id="矩形" x="0" y="0" width="16" height="16"></rect>
            <path d="M2.16776844,5.16439641 C2.36681243,4.96975903 2.67599684,4.94792618 2.89974835,5.09903853 L2.97926851,5.16381274 L7.98874052,10.0481917 L13.0215779,5.16298917 C13.2213295,4.96904407 13.5305914,4.9482848 13.7537912,5.10017303 L13.833075,5.16522292 C14.0317034,5.36026461 14.052964,5.66223466 13.897408,5.88017176 L13.8307873,5.95758616 L8.39330476,11.2370108 C8.19405529,11.4304685 7.88572648,11.4516728 7.6625635,11.3008213 L7.58324892,11.2361873 L2.16836621,5.95676259 C1.94411158,5.73811789 1.94384395,5.38336347 2.16776844,5.16439641 Z" id="路径-3" fill="#7F7F7F" fill-rule="nonzero"></path>
        </g>
    </g>
</svg>